# xmcd
#
# Track frame offsets:
#	150
#	19308
#	34033
#	54206
#	72855
#	87605
#	109035
#	129161
#	143887
#	162291
#	179653
#	200269
#	218819
#	241670
#	253960
#	275197
#
# Disc length: 3966
#
# Revision: 1
# Processed by: cddbd v1.5.1PL0 Copyright (c) Steve Scherf et al.
# Submitted via: uFREEDB ActiveX Control 1.5
# Normalized: r0:TDELIM( - )
#
DISCID=ea0f7c10
DTITLE=O Clone - Internacional
DYEAR=1990
DGENRE=Country
TTITLE0=Michael Bolton - All For love
TTITLE1=Jose Alberto - Mi Gran Amor Le Di
TTITLE2=Alessandro Sofina - Luna
TTITLE3=Abdelli - Adarghal
TTITLE4=Ajda Pekkan - Bir Gunah Gibi
TTITLE5=Sting - Desert Rose
TTITLE6=Dido - My Love's Gone
TTITLE7=Shakira - Wherever, Wherever
TTITLE8=Amr Diad - El Alem Alah
TTITLE9=Adriana Mezzadri - Maecas de Ayer
TTITLE10=Elton Jonh - I Want Love
TTITLE11=Andrea Bocelli - Melodrama
TTITLE12=Amr Diad - nour El ain
TTITLE13=Sarah Brightan - Dans La Nuit
TTITLE14=Tony Mousayek - Azez alya
TTITLE15=Groove Armada - My Friend
EXTD=
EXTT0=
EXTT1=
EXTT2=
EXTT3=
EXTT4=
EXTT5=
EXTT6=
EXTT7=
EXTT8=
EXTT9=
EXTT10=
EXTT11=
EXTT12=
EXTT13=
EXTT14=
EXTT15=
PLAYORDER=
